<svg width="184" height="55" viewBox="0 0 184 55" fill="none" xmlns="http://www.w3.org/2000/svg">
<rect x="0.828857" width="183.102" height="54.3249" rx="5.05108" fill="#D39CFE"/>
<path d="M48.8997 21.9401C48.7093 22.0879 45.3469 23.9825 45.3469 28.1953C45.3469 33.068 49.6254 34.7919 49.7534 34.8345C49.7337 34.9396 49.0737 37.1954 47.4976 39.4939C46.0923 41.5165 44.6246 43.5359 42.3918 43.5359C40.159 43.5359 39.5843 42.2389 37.0068 42.2389C34.4949 42.2389 33.6017 43.5786 31.5594 43.5786C29.517 43.5786 28.092 41.707 26.4535 39.4085C24.5556 36.7094 23.0222 32.5164 23.0222 28.5367C23.0222 22.1536 27.1726 18.7682 31.2573 18.7682C33.4277 18.7682 35.2369 20.1933 36.5996 20.1933C37.8966 20.1933 39.9193 18.6829 42.3885 18.6829C43.3243 18.6829 46.6866 18.7682 48.8997 21.9401ZM41.2163 15.9805C42.2374 14.7689 42.9598 13.0877 42.9598 11.4066C42.9598 11.1734 42.9401 10.937 42.8974 10.7466C41.236 10.809 39.2593 11.8531 38.0673 13.2355C37.1315 14.2994 36.2581 15.9805 36.2581 17.6847C36.2581 17.9408 36.3008 18.1969 36.3205 18.279C36.4256 18.2987 36.5963 18.3217 36.7671 18.3217C38.2578 18.3217 40.1327 17.3235 41.2163 15.9805Z" fill="white"/>
<path d="M64.8228 20.314V11.3229H67.3057C70.4741 11.3229 72.0583 12.7838 72.0583 15.7056C72.0583 17.0933 71.6173 18.2094 70.7353 19.0537C69.8575 19.8939 68.6809 20.314 67.2054 20.314H64.8228ZM65.8761 12.2759V19.3609H67.2179C68.3967 19.3609 69.3142 19.0453 69.9704 18.4142C70.6267 17.783 70.9548 16.8885 70.9548 15.7306C70.9548 13.4275 69.7301 12.2759 67.2806 12.2759H65.8761ZM76.372 20.4644C75.4232 20.4644 74.6645 20.1656 74.096 19.5678C73.5317 18.9659 73.2496 18.1696 73.2496 17.179C73.2496 16.1006 73.5443 15.2583 74.1336 14.6522C74.723 14.0461 75.5193 13.7431 76.5225 13.7431C77.4797 13.7431 78.2258 14.0378 78.7608 14.6271C79.3001 15.2165 79.5697 16.0337 79.5697 17.0787C79.5697 18.1028 79.2792 18.9241 78.6981 19.5428C78.1213 20.1572 77.3459 20.4644 76.372 20.4644ZM76.4472 14.6083C75.7868 14.6083 75.2643 14.834 74.8798 15.2855C74.4952 15.7327 74.3029 16.3514 74.3029 17.1414C74.3029 17.9021 74.4973 18.502 74.886 18.9408C75.2748 19.3797 75.7952 19.5992 76.4472 19.5992C77.1119 19.5992 77.6218 19.3839 77.9771 18.9534C78.3366 18.5229 78.5163 17.9105 78.5163 17.1163C78.5163 16.3137 78.3366 15.6951 77.9771 15.2604C77.6218 14.8257 77.1119 14.6083 76.4472 14.6083ZM89.3006 13.8936L87.3757 20.314H86.3098L84.9869 15.7181C84.9367 15.5425 84.9033 15.344 84.8866 15.1225H84.8615C84.849 15.2729 84.8051 15.4673 84.7298 15.7056L83.294 20.314H82.2657L80.3221 13.8936H81.4005L82.7297 18.7214C82.7715 18.8677 82.8008 19.06 82.8175 19.2982H82.8677C82.8802 19.1143 82.9178 18.9179 82.9805 18.7089L84.4602 13.8936H85.4007L86.7299 18.7339C86.7717 18.8886 86.8031 19.0809 86.824 19.3108H86.8741C86.8825 19.1478 86.918 18.9555 86.9807 18.7339L88.2849 13.8936H89.3006ZM95.8213 20.314H94.7931V16.6523C94.7931 15.2897 94.2956 14.6083 93.3008 14.6083C92.7867 14.6083 92.3603 14.8027 92.0218 15.1914C91.6874 15.576 91.5202 16.063 91.5202 16.6523V20.314H90.4919V13.8936H91.5202V14.9594H91.5452C92.0301 14.1485 92.7323 13.7431 93.6519 13.7431C94.3542 13.7431 94.8913 13.9709 95.2633 14.4265C95.6353 14.8779 95.8213 15.5321 95.8213 16.389V20.314ZM98.7933 20.314H97.765V10.8087H98.7933V20.314ZM103.558 20.4644C102.61 20.4644 101.851 20.1656 101.282 19.5678C100.718 18.9659 100.436 18.1696 100.436 17.179C100.436 16.1006 100.731 15.2583 101.32 14.6522C101.909 14.0461 102.706 13.7431 103.709 13.7431C104.666 13.7431 105.412 14.0378 105.947 14.6271C106.486 15.2165 106.756 16.0337 106.756 17.0787C106.756 18.1028 106.466 18.9241 105.885 19.5428C105.308 20.1572 104.532 20.4644 103.558 20.4644ZM103.634 14.6083C102.973 14.6083 102.451 14.834 102.066 15.2855C101.682 15.7327 101.489 16.3514 101.489 17.1414C101.489 17.9021 101.684 18.502 102.072 18.9408C102.461 19.3797 102.982 19.5992 103.634 19.5992C104.298 19.5992 104.808 19.3839 105.164 18.9534C105.523 18.5229 105.703 17.9105 105.703 17.1163C105.703 16.3137 105.523 15.6951 105.164 15.2604C104.808 14.8257 104.298 14.6083 103.634 14.6083ZM112.995 20.314H111.966V19.3108H111.941C111.494 20.0799 110.836 20.4644 109.966 20.4644C109.327 20.4644 108.825 20.2952 108.462 19.9566C108.102 19.618 107.922 19.1687 107.922 18.6085C107.922 17.4089 108.629 16.7108 110.042 16.5144L111.966 16.2448C111.966 15.1538 111.525 14.6083 110.643 14.6083C109.87 14.6083 109.172 14.8717 108.549 15.3983V14.345C109.18 13.9437 109.908 13.7431 110.731 13.7431C112.24 13.7431 112.995 14.5414 112.995 16.1382V20.314ZM111.966 17.0661L110.418 17.2793C109.941 17.3462 109.582 17.4653 109.339 17.6367C109.097 17.8039 108.976 18.1028 108.976 18.5333C108.976 18.8468 109.086 19.1039 109.308 19.3045C109.534 19.501 109.833 19.5992 110.205 19.5992C110.715 19.5992 111.135 19.4215 111.465 19.0662C111.799 18.7068 111.966 18.2532 111.966 17.7057V17.0661ZM120.412 20.314H119.384V19.223H119.359C118.882 20.0506 118.146 20.4644 117.152 20.4644C116.345 20.4644 115.699 20.1781 115.214 19.6055C114.734 19.0286 114.493 18.2449 114.493 17.2542C114.493 16.1925 114.761 15.3419 115.296 14.7024C115.831 14.0628 116.543 13.7431 117.434 13.7431C118.316 13.7431 118.957 14.09 119.359 14.7839H119.384V10.8087H120.412V20.314ZM119.384 17.411V16.4642C119.384 15.9459 119.212 15.507 118.87 15.1475C118.527 14.7881 118.092 14.6083 117.565 14.6083C116.938 14.6083 116.445 14.8382 116.086 15.298C115.726 15.7578 115.547 16.3932 115.547 17.2041C115.547 17.9439 115.718 18.5291 116.061 18.9597C116.408 19.386 116.872 19.5992 117.453 19.5992C118.025 19.5992 118.489 19.3923 118.845 18.9785C119.204 18.5647 119.384 18.0422 119.384 17.411ZM128.701 20.4644C127.752 20.4644 126.993 20.1656 126.425 19.5678C125.861 18.9659 125.578 18.1696 125.578 17.179C125.578 16.1006 125.873 15.2583 126.462 14.6522C127.052 14.0461 127.848 13.7431 128.851 13.7431C129.809 13.7431 130.555 14.0378 131.09 14.6271C131.629 15.2165 131.899 16.0337 131.899 17.0787C131.899 18.1028 131.608 18.9241 131.027 19.5428C130.45 20.1572 129.675 20.4644 128.701 20.4644ZM128.776 14.6083C128.116 14.6083 127.593 14.834 127.209 15.2855C126.824 15.7327 126.632 16.3514 126.632 17.1414C126.632 17.9021 126.826 18.502 127.215 18.9408C127.604 19.3797 128.124 19.5992 128.776 19.5992C129.441 19.5992 129.951 19.3839 130.306 18.9534C130.665 18.5229 130.845 17.9105 130.845 17.1163C130.845 16.3137 130.665 15.6951 130.306 15.2604C129.951 14.8257 129.441 14.6083 128.776 14.6083ZM138.871 20.314H137.842V16.6523C137.842 15.2897 137.345 14.6083 136.35 14.6083C135.836 14.6083 135.41 14.8027 135.071 15.1914C134.737 15.576 134.57 16.063 134.57 16.6523V20.314H133.541V13.8936H134.57V14.9594H134.595C135.079 14.1485 135.782 13.7431 136.701 13.7431C137.404 13.7431 137.941 13.9709 138.313 14.4265C138.685 14.8779 138.871 15.5321 138.871 16.389V20.314ZM147.316 20.2513C147.074 20.385 146.754 20.4519 146.357 20.4519C145.233 20.4519 144.67 19.8249 144.67 18.5709V14.7713H143.567V13.8936H144.67V12.3261L145.699 11.9938V13.8936H147.316V14.7713H145.699V18.3891C145.699 18.8196 145.772 19.1269 145.918 19.3108C146.064 19.4947 146.307 19.5867 146.645 19.5867C146.905 19.5867 147.128 19.5156 147.316 19.3735V20.2513ZM154.019 20.314H152.991V16.6147C152.991 15.2771 152.493 14.6083 151.498 14.6083C150.997 14.6083 150.575 14.8027 150.232 15.1914C149.889 15.576 149.718 16.0713 149.718 16.6774V20.314H148.689V10.8087H149.718V14.9594H149.743C150.236 14.1485 150.938 13.7431 151.849 13.7431C153.296 13.7431 154.019 14.6146 154.019 16.3576V20.314ZM161.123 17.3608H156.59C156.606 18.0756 156.799 18.6274 157.166 19.0161C157.534 19.4048 158.04 19.5992 158.684 19.5992C159.407 19.5992 160.071 19.3609 160.678 18.8844V19.85C160.113 20.2596 159.367 20.4644 158.439 20.4644C157.532 20.4644 156.819 20.1739 156.301 19.5929C155.783 19.0077 155.524 18.1864 155.524 17.1288C155.524 16.1298 155.806 15.3168 156.37 14.6898C156.939 14.0587 157.643 13.7431 158.483 13.7431C159.323 13.7431 159.973 14.0148 160.433 14.5582C160.893 15.1016 161.123 15.856 161.123 16.8216V17.3608ZM160.069 16.4893C160.065 15.8958 159.921 15.4339 159.637 15.1037C159.357 14.7734 158.966 14.6083 158.464 14.6083C157.979 14.6083 157.568 14.7818 157.229 15.1287C156.89 15.4757 156.681 15.9292 156.602 16.4893H160.069Z" fill="white"/>
<path d="M77.6498 43.0112H75.6428L74.0027 38.6735H67.4422L65.8992 43.0112H63.8814L69.8161 27.538H71.6936L77.6498 43.0112ZM73.4092 37.0442L70.9814 30.4514C70.9023 30.2356 70.8232 29.8903 70.744 29.4155H70.7009C70.6289 29.8543 70.5462 30.1996 70.4527 30.4514L68.0465 37.0442H73.4092ZM81.5127 41.4143H81.4696V48.0934H79.7V31.962H81.4696V33.9042H81.5127C82.3831 32.4368 83.6564 31.703 85.3325 31.703C86.7568 31.703 87.8682 32.1994 88.6667 33.1921C89.4652 34.1776 89.8644 35.5012 89.8644 37.1629C89.8644 39.0116 89.4148 40.4935 88.5156 41.6085C87.6164 42.7163 86.3863 43.2702 84.8253 43.2702C83.3938 43.2702 82.2896 42.6516 81.5127 41.4143ZM81.4696 36.9579V38.5009C81.4696 39.4145 81.7645 40.1914 82.3544 40.8316C82.9514 41.4646 83.7067 41.7811 84.6203 41.7811C85.6922 41.7811 86.5302 41.3711 87.1345 40.551C87.7459 39.731 88.0516 38.5908 88.0516 37.1305C88.0516 35.9004 87.7675 34.9365 87.1992 34.2387C86.6309 33.541 85.8612 33.1921 84.8901 33.1921C83.8614 33.1921 83.0342 33.5518 82.4083 34.2711C81.7825 34.9833 81.4696 35.8789 81.4696 36.9579ZM94.5042 41.4143H94.461V48.0934H92.6914V31.962H94.461V33.9042H94.5042C95.3746 32.4368 96.6479 31.703 98.324 31.703C99.7483 31.703 100.86 32.1994 101.658 33.1921C102.457 34.1776 102.856 35.5012 102.856 37.1629C102.856 39.0116 102.406 40.4935 101.507 41.6085C100.608 42.7163 99.3778 43.2702 97.8168 43.2702C96.3853 43.2702 95.2811 42.6516 94.5042 41.4143ZM94.461 36.9579V38.5009C94.461 39.4145 94.756 40.1914 95.3458 40.8316C95.9429 41.4646 96.6982 41.7811 97.6118 41.7811C98.6836 41.7811 99.5217 41.3711 100.126 40.551C100.737 39.731 101.043 38.5908 101.043 37.1305C101.043 35.9004 100.759 34.9365 100.191 34.2387C99.6224 33.541 98.8527 33.1921 97.8816 33.1921C96.8529 33.1921 96.0256 33.5518 95.3998 34.2711C94.774 34.9833 94.461 35.8789 94.461 36.9579ZM111.261 42.3854V40.2489C111.506 40.4647 111.797 40.659 112.136 40.8316C112.481 41.0042 112.84 41.1517 113.215 41.274C113.596 41.3891 113.977 41.479 114.358 41.5438C114.74 41.6085 115.092 41.6409 115.416 41.6409C116.531 41.6409 117.362 41.4359 117.908 41.0258C118.462 40.6086 118.739 40.0115 118.739 39.2346C118.739 38.8174 118.646 38.4541 118.459 38.1448C118.279 37.8355 118.027 37.555 117.703 37.3032C117.38 37.0442 116.995 36.7996 116.549 36.5694C116.11 36.3321 115.635 36.0839 115.124 35.8249C114.585 35.5516 114.081 35.2746 113.614 34.9941C113.146 34.7135 112.74 34.4042 112.394 34.0661C112.049 33.728 111.776 33.3467 111.574 32.9223C111.38 32.4907 111.283 31.9872 111.283 31.4117C111.283 30.7067 111.438 30.0953 111.747 29.5773C112.056 29.0522 112.463 28.6206 112.966 28.2825C113.47 27.9444 114.042 27.6926 114.682 27.5272C115.329 27.3617 115.988 27.279 116.657 27.279C118.182 27.279 119.293 27.4625 119.991 27.8293V29.8687C119.077 29.2357 117.905 28.9191 116.473 28.9191C116.078 28.9191 115.682 28.9623 115.286 29.0486C114.891 29.1278 114.538 29.2608 114.229 29.4479C113.919 29.6349 113.668 29.8759 113.473 30.1708C113.279 30.4657 113.182 30.8254 113.182 31.2498C113.182 31.6455 113.254 31.9872 113.398 32.2749C113.549 32.5627 113.768 32.8252 114.056 33.0626C114.344 33.3 114.693 33.5302 115.103 33.7532C115.52 33.9762 115.998 34.2208 116.538 34.4869C117.092 34.7603 117.617 35.048 118.113 35.3501C118.61 35.6523 119.045 35.9868 119.419 36.3536C119.793 36.7205 120.088 37.1269 120.304 37.5729C120.527 38.0189 120.638 38.5297 120.638 39.1052C120.638 39.8677 120.487 40.5151 120.185 41.0474C119.89 41.5725 119.487 42.0005 118.977 42.3314C118.473 42.6623 117.89 42.8997 117.229 43.0436C116.567 43.1947 115.869 43.2702 115.135 43.2702C114.891 43.2702 114.588 43.2486 114.229 43.2055C113.869 43.1695 113.502 43.1119 113.128 43.0328C112.754 42.9609 112.398 42.871 112.06 42.7631C111.729 42.648 111.463 42.5221 111.261 42.3854ZM128.612 42.9033C128.195 43.1335 127.645 43.2486 126.961 43.2486C125.026 43.2486 124.059 42.1696 124.059 40.0115V33.4726H122.16V31.962H124.059V29.2644L125.828 28.6925V31.962H128.612V33.4726H125.828V39.6986C125.828 40.4396 125.954 40.9683 126.206 41.2848C126.458 41.6013 126.875 41.7596 127.458 41.7596C127.904 41.7596 128.289 41.6373 128.612 41.3927V42.9033ZM135.594 43.2702C133.961 43.2702 132.655 42.7559 131.677 41.7272C130.706 40.6913 130.22 39.321 130.22 37.6161C130.22 35.7602 130.727 34.3107 131.741 33.2676C132.756 32.2246 134.126 31.703 135.853 31.703C137.5 31.703 138.784 32.2102 139.705 33.2245C140.633 34.2387 141.097 35.6451 141.097 37.4435C141.097 39.2059 140.597 40.6194 139.597 41.684C138.604 42.7415 137.27 43.2702 135.594 43.2702ZM135.723 33.1921C134.586 33.1921 133.687 33.5805 133.025 34.3574C132.364 35.1271 132.033 36.1918 132.033 37.5514C132.033 38.8606 132.367 39.8928 133.036 40.6482C133.705 41.4035 134.601 41.7811 135.723 41.7811C136.867 41.7811 137.744 41.4107 138.356 40.6697C138.974 39.9288 139.284 38.875 139.284 37.5082C139.284 36.127 138.974 35.0624 138.356 34.3143C137.744 33.5662 136.867 33.1921 135.723 33.1921ZM149.686 33.7532C149.376 33.5158 148.93 33.3971 148.348 33.3971C147.592 33.3971 146.959 33.7532 146.449 34.4653C145.945 35.1775 145.693 36.1486 145.693 37.3787V43.0112H143.924V31.962H145.693V34.2387H145.736C145.988 33.4618 146.373 32.8576 146.891 32.426C147.409 31.9872 147.988 31.7678 148.628 31.7678C149.089 31.7678 149.441 31.8181 149.686 31.9188V33.7532ZM160.487 37.929H152.685C152.714 39.1591 153.045 40.1086 153.678 40.7776C154.311 41.4466 155.181 41.7811 156.289 41.7811C157.534 41.7811 158.678 41.3711 159.721 40.551V42.2128C158.749 42.9177 157.465 43.2702 155.868 43.2702C154.307 43.2702 153.081 42.7702 152.189 41.7703C151.297 40.7633 150.851 39.3497 150.851 37.5298C150.851 35.8105 151.337 34.4114 152.308 33.3324C153.286 32.2461 154.498 31.703 155.944 31.703C157.39 31.703 158.508 32.1706 159.3 33.1058C160.091 34.0409 160.487 35.3394 160.487 37.0011V37.929ZM158.674 36.4292C158.667 35.4077 158.419 34.6128 157.929 34.0445C157.447 33.4762 156.775 33.1921 155.912 33.1921C155.077 33.1921 154.369 33.4906 153.786 34.0877C153.203 34.6847 152.844 35.4652 152.707 36.4292H158.674Z" fill="white"/>
</svg>
