<svg width="12" height="12" viewBox="0 0 12 12" fill="none" xmlns="http://www.w3.org/2000/svg">
<path d="M8.05069 4.71541C8.12877 4.6381 8.23421 4.59473 8.34409 4.59473C8.45397 4.59473 8.55941 4.6381 8.63749 4.71541C8.67604 4.75337 8.70665 4.79862 8.72755 4.84853C8.74844 4.89844 8.75921 4.952 8.75921 5.00611C8.75921 5.06021 8.74844 5.11378 8.72755 5.16368C8.70665 5.21359 8.67604 5.25884 8.63749 5.29681L6.29269 7.59481C6.21443 7.67201 6.10892 7.7153 5.99899 7.7153C5.88906 7.7153 5.78355 7.67201 5.70529 7.59481L3.36049 5.29681C3.32194 5.25884 3.29132 5.21359 3.27043 5.16368C3.24953 5.11378 3.23877 5.06021 3.23877 5.00611C3.23877 4.952 3.24953 4.89844 3.27043 4.84853C3.29132 4.79862 3.32194 4.75337 3.36049 4.71541C3.43857 4.6381 3.54401 4.59473 3.65389 4.59473C3.76377 4.59473 3.86921 4.6381 3.94729 4.71541L5.99989 6.60001L8.05069 4.71541Z" fill="white"/>
</svg>
