<svg width="12" height="12" viewBox="0 0 12 12" fill="none" xmlns="http://www.w3.org/2000/svg">
<path d="M3.94924 7.28456C3.87116 7.36187 3.76572 7.40524 3.65584 7.40524C3.54596 7.40524 3.44052 7.36187 3.36244 7.28456C3.32389 7.24659 3.29328 7.20134 3.27238 7.15143C3.25148 7.10153 3.24072 7.04796 3.24072 6.99386C3.24072 6.93975 3.25148 6.88619 3.27238 6.83628C3.29328 6.78637 3.32389 6.74112 3.36244 6.70316L5.70724 4.40516C5.7855 4.32795 5.89101 4.28467 6.00094 4.28467C6.11087 4.28467 6.21638 4.32795 6.29464 4.40516L8.63944 6.70316C8.67799 6.74112 8.7086 6.78637 8.7295 6.83628C8.7504 6.88619 8.76116 6.93975 8.76116 6.99386C8.76116 7.04796 8.7504 7.10153 8.7295 7.15143C8.7086 7.20134 8.67799 7.24659 8.63944 7.28456C8.56118 7.36176 8.45567 7.40505 8.34574 7.40505C8.23581 7.40505 8.1303 7.36176 8.05204 7.28456L6.00004 5.39996L3.94924 7.28456Z" fill="white"/>
</svg>
