<svg width="185" height="55" viewBox="0 0 185 55" fill="none" xmlns="http://www.w3.org/2000/svg">
<rect x="0.93042" width="183.389" height="54.3249" rx="5.05108" fill="#D39CFE"/>
<path d="M26.1958 26.4331L12.4189 40.867C12.5771 41.4129 12.8571 41.9158 13.2378 42.3379C13.6184 42.76 14.0899 43.0902 14.6167 43.3036C15.1434 43.5171 15.7118 43.6083 16.2789 43.5703C16.846 43.5324 17.3971 43.3662 17.8907 43.0844L33.3922 34.2557L26.1958 26.4331Z" fill="#EA4335"/>
<path d="M40.1263 23.9791L33.4226 20.1396L25.8772 26.7612L33.4534 34.2348L40.1058 30.4364C40.5306 30.2155 40.9077 29.9129 41.2153 29.5459C41.5228 29.1789 41.7548 28.7547 41.8979 28.2978C42.041 27.8408 42.0924 27.3601 42.0491 26.8832C42.0058 26.4063 41.8687 25.9427 41.6457 25.519C41.2976 24.8634 40.7613 24.3271 40.1058 23.9791H40.1263Z" fill="#FBBC04"/>
<path d="M12.4186 13.4775C12.3366 13.7857 12.2952 14.1032 12.2954 14.422V39.9226C12.2952 40.2414 12.3366 40.5589 12.4186 40.867L26.6677 26.8027L12.4186 13.4775Z" fill="#4285F4"/>
<path d="M26.2985 27.1721L33.423 20.1399L17.942 11.2702C17.3594 10.9295 16.6971 10.7489 16.0223 10.7466C15.2072 10.745 14.4138 11.0099 13.7633 11.5011C13.1127 11.9922 12.6406 12.6827 12.4189 13.4671L26.2985 27.1721Z" fill="#34A853"/>
<path d="M57.1328 20.314V11.3229H59.6157C62.7841 11.3229 64.3684 12.7838 64.3684 15.7056C64.3684 17.0933 63.9274 18.2094 63.0454 19.0537C62.1676 19.8939 60.9909 20.314 59.5154 20.314H57.1328ZM58.1862 12.2759V19.3609H59.528C60.7067 19.3609 61.6242 19.0453 62.2805 18.4142C62.9367 17.783 63.2648 16.8885 63.2648 15.7306C63.2648 13.4275 62.0401 12.2759 59.5907 12.2759H58.1862ZM68.6821 20.4644C67.7332 20.4644 66.9746 20.1656 66.4061 19.5678C65.8418 18.9659 65.5596 18.1696 65.5596 17.179C65.5596 16.1006 65.8543 15.2583 66.4437 14.6522C67.0331 14.0461 67.8294 13.7431 68.8325 13.7431C69.7898 13.7431 70.5359 14.0378 71.0709 14.6271C71.6101 15.2165 71.8797 16.0337 71.8797 17.0787C71.8797 18.1028 71.5892 18.9241 71.0082 19.5428C70.4314 20.1572 69.656 20.4644 68.6821 20.4644ZM68.7573 14.6083C68.0969 14.6083 67.5744 14.834 67.1898 15.2855C66.8053 15.7327 66.613 16.3514 66.613 17.1414C66.613 17.9021 66.8074 18.502 67.1961 18.9408C67.5848 19.3797 68.1052 19.5992 68.7573 19.5992C69.4219 19.5992 69.9319 19.3839 70.2872 18.9534C70.6466 18.5229 70.8264 17.9105 70.8264 17.1163C70.8264 16.3137 70.6466 15.6951 70.2872 15.2604C69.9319 14.8257 69.4219 14.6083 68.7573 14.6083ZM81.6107 13.8936L79.6858 20.314H78.6199L77.2969 15.7181C77.2468 15.5425 77.2134 15.344 77.1966 15.1225H77.1716C77.159 15.2729 77.1151 15.4673 77.0399 15.7056L75.6041 20.314H74.5758L72.6321 13.8936H73.7105L75.0398 18.7214C75.0816 18.8677 75.1108 19.06 75.1276 19.2982H75.1777C75.1903 19.1143 75.2279 18.9179 75.2906 18.7089L76.7703 13.8936H77.7108L79.04 18.7339C79.0818 18.8886 79.1131 19.0809 79.134 19.3108H79.1842C79.1926 19.1478 79.2281 18.9555 79.2908 18.7339L80.5949 13.8936H81.6107ZM88.1314 20.314H87.1031V16.6523C87.1031 15.2897 86.6057 14.6083 85.6109 14.6083C85.0967 14.6083 84.6704 14.8027 84.3318 15.1914C83.9974 15.576 83.8302 16.063 83.8302 16.6523V20.314H82.8019V13.8936H83.8302V14.9594H83.8553C84.3402 14.1485 85.0424 13.7431 85.962 13.7431C86.6642 13.7431 87.2014 13.9709 87.5734 14.4265C87.9454 14.8779 88.1314 15.5321 88.1314 16.389V20.314ZM91.1033 20.314H90.0751V10.8087H91.1033V20.314ZM95.8685 20.4644C94.9196 20.4644 94.161 20.1656 93.5925 19.5678C93.0282 18.9659 92.7461 18.1696 92.7461 17.179C92.7461 16.1006 93.0408 15.2583 93.6301 14.6522C94.2195 14.0461 95.0158 13.7431 96.019 13.7431C96.9762 13.7431 97.7223 14.0378 98.2573 14.6271C98.7965 15.2165 99.0662 16.0337 99.0662 17.0787C99.0662 18.1028 98.7756 18.9241 98.1946 19.5428C97.6178 20.1572 96.8424 20.4644 95.8685 20.4644ZM95.9437 14.6083C95.2833 14.6083 94.7608 14.834 94.3762 15.2855C93.9917 15.7327 93.7994 16.3514 93.7994 17.1414C93.7994 17.9021 93.9938 18.502 94.3825 18.9408C94.7713 19.3797 95.2917 19.5992 95.9437 19.5992C96.6083 19.5992 97.1183 19.3839 97.4736 18.9534C97.8331 18.5229 98.0128 17.9105 98.0128 17.1163C98.0128 16.3137 97.8331 15.6951 97.4736 15.2604C97.1183 14.8257 96.6083 14.6083 95.9437 14.6083ZM105.305 20.314H104.276V19.3108H104.251C103.804 20.0799 103.146 20.4644 102.276 20.4644C101.637 20.4644 101.135 20.2952 100.772 19.9566C100.412 19.618 100.232 19.1687 100.232 18.6085C100.232 17.4089 100.939 16.7108 102.352 16.5144L104.276 16.2448C104.276 15.1538 103.835 14.6083 102.954 14.6083C102.18 14.6083 101.482 14.8717 100.859 15.3983V14.345C101.491 13.9437 102.218 13.7431 103.041 13.7431C104.55 13.7431 105.305 14.5414 105.305 16.1382V20.314ZM104.276 17.0661L102.728 17.2793C102.251 17.3462 101.892 17.4653 101.649 17.6367C101.407 17.8039 101.286 18.1028 101.286 18.5333C101.286 18.8468 101.396 19.1039 101.618 19.3045C101.844 19.501 102.143 19.5992 102.515 19.5992C103.025 19.5992 103.445 19.4215 103.775 19.0662C104.109 18.7068 104.276 18.2532 104.276 17.7057V17.0661ZM112.722 20.314H111.694V19.223H111.669C111.192 20.0506 110.457 20.4644 109.462 20.4644C108.655 20.4644 108.009 20.1781 107.524 19.6055C107.044 19.0286 106.803 18.2449 106.803 17.2542C106.803 16.1925 107.071 15.3419 107.606 14.7024C108.141 14.0628 108.854 13.7431 109.744 13.7431C110.626 13.7431 111.267 14.09 111.669 14.7839H111.694V10.8087H112.722V20.314ZM111.694 17.411V16.4642C111.694 15.9459 111.522 15.507 111.18 15.1475C110.837 14.7881 110.402 14.6083 109.876 14.6083C109.249 14.6083 108.755 14.8382 108.396 15.298C108.036 15.7578 107.857 16.3932 107.857 17.2041C107.857 17.9439 108.028 18.5291 108.371 18.9597C108.718 19.386 109.182 19.5992 109.763 19.5992C110.335 19.5992 110.799 19.3923 111.155 18.9785C111.514 18.5647 111.694 18.0422 111.694 17.411ZM121.011 20.4644C120.062 20.4644 119.303 20.1656 118.735 19.5678C118.171 18.9659 117.888 18.1696 117.888 17.179C117.888 16.1006 118.183 15.2583 118.773 14.6522C119.362 14.0461 120.158 13.7431 121.161 13.7431C122.119 13.7431 122.865 14.0378 123.4 14.6271C123.939 15.2165 124.209 16.0337 124.209 17.0787C124.209 18.1028 123.918 18.9241 123.337 19.5428C122.76 20.1572 121.985 20.4644 121.011 20.4644ZM121.086 14.6083C120.426 14.6083 119.903 14.834 119.519 15.2855C119.134 15.7327 118.942 16.3514 118.942 17.1414C118.942 17.9021 119.136 18.502 119.525 18.9408C119.914 19.3797 120.434 19.5992 121.086 19.5992C121.751 19.5992 122.261 19.3839 122.616 18.9534C122.975 18.5229 123.155 17.9105 123.155 17.1163C123.155 16.3137 122.975 15.6951 122.616 15.2604C122.261 14.8257 121.751 14.6083 121.086 14.6083ZM131.181 20.314H130.152V16.6523C130.152 15.2897 129.655 14.6083 128.66 14.6083C128.146 14.6083 127.72 14.8027 127.381 15.1914C127.047 15.576 126.88 16.063 126.88 16.6523V20.314H125.851V13.8936H126.88V14.9594H126.905C127.39 14.1485 128.092 13.7431 129.011 13.7431C129.714 13.7431 130.251 13.9709 130.623 14.4265C130.995 14.8779 131.181 15.5321 131.181 16.389V20.314Z" fill="white"/>
<path d="M69.5498 41.9538C67.996 42.8314 66.2696 43.2702 64.3705 43.2702C62.1621 43.2702 60.3745 42.558 59.0077 41.1337C57.6482 39.7094 56.9684 37.8247 56.9684 35.4796C56.9684 33.0842 57.7237 31.1204 59.2343 29.5881C60.7522 28.0487 62.6728 27.279 64.9963 27.279C66.6796 27.279 68.0932 27.5524 69.2369 28.0991V30.1061C67.9852 29.3148 66.5034 28.9191 64.7913 28.9191C63.0577 28.9191 61.637 29.5162 60.5292 30.7103C59.4214 31.9044 58.8675 33.4511 58.8675 35.3501C58.8675 37.3068 59.3818 38.8462 60.4105 39.9684C61.4392 41.0834 62.8347 41.6409 64.5971 41.6409C65.8056 41.6409 66.8523 41.3999 67.7371 40.9179V36.5802H64.3489V34.9401H69.5498V41.9538ZM77.5346 43.2702C75.9017 43.2702 74.5961 42.7559 73.6178 41.7272C72.6466 40.6913 72.1611 39.321 72.1611 37.6161C72.1611 35.7602 72.6682 34.3107 73.6825 33.2676C74.6968 32.2246 76.0672 31.703 77.7936 31.703C79.4409 31.703 80.725 32.2102 81.6457 33.2245C82.5737 34.2387 83.0377 35.6451 83.0377 37.4435C83.0377 39.2059 82.5377 40.6194 81.5378 41.684C80.5451 42.7415 79.2107 43.2702 77.5346 43.2702ZM77.6641 33.1921C76.5275 33.1921 75.6284 33.5805 74.9666 34.3574C74.3047 35.1271 73.9738 36.1918 73.9738 37.5514C73.9738 38.8606 74.3083 39.8928 74.9773 40.6482C75.6463 41.4035 76.5419 41.7811 77.6641 41.7811C78.8079 41.7811 79.6855 41.4107 80.2969 40.6697C80.9156 39.9288 81.2249 38.875 81.2249 37.5082C81.2249 36.127 80.9156 35.0624 80.2969 34.3143C79.6855 33.5662 78.8079 33.1921 77.6641 33.1921ZM90.483 43.2702C88.85 43.2702 87.5444 42.7559 86.5661 41.7272C85.595 40.6913 85.1094 39.321 85.1094 37.6161C85.1094 35.7602 85.6165 34.3107 86.6308 33.2676C87.6451 32.2246 89.0155 31.703 90.7419 31.703C92.3892 31.703 93.6733 32.2102 94.594 33.2245C95.522 34.2387 95.986 35.6451 95.986 37.4435C95.986 39.2059 95.486 40.6194 94.4861 41.684C93.4934 42.7415 92.159 43.2702 90.483 43.2702ZM90.6124 33.1921C89.4759 33.1921 88.5767 33.5805 87.9149 34.3574C87.2531 35.1271 86.9222 36.1918 86.9222 37.5514C86.9222 38.8606 87.2567 39.8928 87.9257 40.6482C88.5947 41.4035 89.4903 41.7811 90.6124 41.7811C91.7562 41.7811 92.6338 41.4107 93.2453 40.6697C93.8639 39.9288 94.1732 38.875 94.1732 37.5082C94.1732 36.127 93.8639 35.0624 93.2453 34.3143C92.6338 33.5662 91.7562 33.1921 90.6124 33.1921ZM108.244 42.1264C108.244 46.1836 106.301 48.2121 102.417 48.2121C101.05 48.2121 99.8561 47.9532 98.8346 47.4352V45.6656C100.079 46.3562 101.266 46.7015 102.395 46.7015C105.115 46.7015 106.474 45.2556 106.474 42.3638V41.1553H106.431C105.589 42.5652 104.323 43.2702 102.633 43.2702C101.259 43.2702 100.151 42.781 99.3094 41.8027C98.4749 40.8172 98.0577 39.4972 98.0577 37.8427C98.0577 35.9652 98.5073 34.4725 99.4065 33.3647C100.313 32.2569 101.55 31.703 103.118 31.703C104.607 31.703 105.712 32.3001 106.431 33.4942H106.474V31.962H108.244V42.1264ZM106.474 38.0153V36.386C106.474 35.5084 106.176 34.7567 105.579 34.1308C104.989 33.505 104.251 33.1921 103.367 33.1921C102.273 33.1921 101.417 33.5913 100.798 34.3898C100.18 35.1811 99.8705 36.2925 99.8705 37.724C99.8705 38.9541 100.165 39.9396 100.755 40.6805C101.352 41.4143 102.14 41.7811 103.118 41.7811C104.111 41.7811 104.917 41.4287 105.535 40.7237C106.161 40.0187 106.474 39.1159 106.474 38.0153ZM113.596 43.0112H111.826V26.6532H113.596V43.0112ZM126.058 37.929H118.257C118.286 39.1591 118.617 40.1086 119.25 40.7776C119.883 41.4466 120.753 41.7811 121.861 41.7811C123.106 41.7811 124.249 41.3711 125.292 40.551V42.2128C124.321 42.9177 123.037 43.2702 121.44 43.2702C119.879 43.2702 118.653 42.7702 117.761 41.7703C116.869 40.7633 116.423 39.3497 116.423 37.5298C116.423 35.8105 116.908 34.4114 117.879 33.3324C118.858 32.2461 120.07 31.703 121.516 31.703C122.962 31.703 124.08 32.1706 124.872 33.1058C125.663 34.0409 126.058 35.3394 126.058 37.0011V37.929ZM124.246 36.4292C124.239 35.4077 123.99 34.6128 123.501 34.0445C123.019 33.4762 122.347 33.1921 121.483 33.1921C120.649 33.1921 119.94 33.4906 119.358 34.0877C118.775 34.6847 118.415 35.4652 118.279 36.4292H124.246ZM136.86 37.1629V43.0112H135.047V27.538H139.298C140.953 27.538 142.233 27.9408 143.139 28.7465C144.053 29.5522 144.51 30.6887 144.51 32.1562C144.51 33.6237 144.003 34.825 142.988 35.7602C141.981 36.6953 140.618 37.1629 138.899 37.1629H136.86ZM136.86 29.1781V35.5228H138.759C140.01 35.5228 140.963 35.2386 141.618 34.6704C142.28 34.0949 142.611 33.2856 142.611 32.2425C142.611 30.1996 141.402 29.1781 138.985 29.1781H136.86ZM148.966 43.0112H147.197V26.6532H148.966V43.0112ZM160.458 43.0112H158.688V41.2848H158.645C157.875 42.6084 156.742 43.2702 155.246 43.2702C154.146 43.2702 153.282 42.9789 152.656 42.3962C152.038 41.8135 151.729 41.0402 151.729 40.0763C151.729 38.0117 152.944 36.8104 155.376 36.4723L158.688 36.0083C158.688 34.1308 157.929 33.1921 156.411 33.1921C155.081 33.1921 153.879 33.6453 152.808 34.5517V32.7389C153.894 32.0483 155.145 31.703 156.563 31.703C159.159 31.703 160.458 33.077 160.458 35.8249V43.0112ZM158.688 37.4219L156.023 37.7887C155.203 37.9038 154.584 38.1089 154.167 38.4038C153.75 38.6915 153.541 39.2059 153.541 39.9468C153.541 40.4863 153.732 40.9287 154.113 41.274C154.502 41.6121 155.016 41.7811 155.656 41.7811C156.534 41.7811 157.257 41.4754 157.825 40.864C158.4 40.2453 158.688 39.4648 158.688 38.5225V37.4219ZM172.586 31.962L167.504 44.7808C166.598 47.0684 165.324 48.2121 163.684 48.2121C163.224 48.2121 162.839 48.1654 162.53 48.0719V46.4857C162.911 46.6152 163.26 46.6799 163.576 46.6799C164.468 46.6799 165.137 46.1476 165.583 45.083L166.468 42.9896L162.152 31.962H164.116L167.105 40.4647C167.141 40.5726 167.216 40.8532 167.331 41.3064H167.396C167.432 41.1337 167.504 40.8604 167.612 40.4863L170.752 31.962H172.586Z" fill="white"/>
</svg>
