<svg width="16" height="16" viewBox="0 0 16 16" fill="none" xmlns="http://www.w3.org/2000/svg">
<path d="M7.35862 0.860313C7.67854 0.431189 8.32146 0.43119 8.64138 0.860314L10.7947 3.74874C10.8917 3.8788 11.0259 3.9763 11.1796 4.02833L14.592 5.18373C15.099 5.35538 15.2977 5.96684 14.9884 6.4037L12.9068 9.34425C12.8131 9.47665 12.7618 9.63442 12.7598 9.79663L12.7155 13.3991C12.7089 13.9343 12.1888 14.3122 11.6777 14.1531L8.23783 13.0821C8.08294 13.0338 7.91706 13.0338 7.76217 13.0821L4.32228 14.1531C3.81123 14.3122 3.2911 13.9343 3.28451 13.3991L3.24017 9.79663C3.23818 9.63442 3.18692 9.47665 3.09319 9.34425L1.01156 6.4037C0.702297 5.96683 0.90097 5.35538 1.40795 5.18373L4.82044 4.02833C4.97409 3.9763 5.10829 3.8788 5.20525 3.74874L7.35862 0.860313Z" fill="#FCEBAC"/>
</svg>
