<svg width="230" height="81" viewBox="0 0 230 81" fill="none" xmlns="http://www.w3.org/2000/svg">
<rect x="9.34619" width="211.574" height="79.3654" rx="11.984" fill="#D7BFEF"/>
<path opacity="0.5" fill-rule="evenodd" clip-rule="evenodd" d="M41.3777 58.2299C51.6206 58.2299 59.9243 49.9262 59.9243 39.6833C59.9243 29.4403 51.6206 21.1367 41.3777 21.1367C31.1346 21.1367 22.8311 29.4403 22.8311 39.6833C22.8311 49.9262 31.1346 58.2299 41.3777 58.2299Z" fill="#1A0624"/>
<path d="M47.7097 41.6474L38.9553 46.8159C37.5462 47.6479 35.8145 46.565 35.8145 44.8519V34.5146C35.8145 32.8015 37.5462 31.7187 38.9553 32.5506L47.7097 37.7192C49.1595 38.5753 49.1595 40.7913 47.7097 41.6474Z" fill="#F5D7F0"/>
<path d="M85.3135 18.0726H86.9428V35.2349L85.3135 35.6259V18.0726ZM86.0521 18.0726H95.8281V27.7399H86.0521V26.3061H94.177V19.5281H86.0521V18.0726ZM86.0738 22.2219H94.8722V23.6123H86.0738V22.2219ZM83.2062 35.1045C85.2917 34.8004 88.5721 34.2573 91.7222 33.7142L91.8308 35.1697C88.9632 35.7128 85.8783 36.2559 83.6624 36.647L83.2062 35.1045ZM90.7663 27.1099C91.7656 31.0855 93.9815 34.3007 97.3923 35.6476C97.0229 35.9735 96.545 36.6035 96.306 37.038C92.6781 35.4087 90.5056 31.911 89.3542 27.3924L90.7663 27.1099ZM95.6977 28.5003L96.8491 29.4344C95.6109 30.5641 93.8946 31.759 92.5912 32.541L91.5484 31.6286C92.8301 30.8465 94.6333 29.4996 95.6977 28.5003ZM82.6196 21.3312L84.0752 21.9178C82.4893 24.5899 80.0127 27.2837 77.7316 29.0217C77.5579 28.6741 77.0582 27.8703 76.7758 27.5444C78.9482 26.0237 81.2293 23.6992 82.6196 21.3312ZM81.881 17.0515L83.4452 17.6815C82.0983 19.5933 79.9475 21.7006 77.9272 23.0257C77.7534 22.6564 77.3406 22.0047 77.0799 21.6788C78.883 20.5274 80.9034 18.6374 81.881 17.0515ZM80.3386 25.7196L81.8593 24.1771L81.9245 24.2206V37.0163H80.3386V25.7196ZM106.191 17.0515L107.929 17.4426C106.408 22.0264 103.975 26.0672 101.064 28.6524C100.76 28.3482 100.021 27.7617 99.6081 27.4793C102.563 25.1113 104.844 21.2661 106.191 17.0515ZM111.578 26.1541C113.012 30.2817 116.054 33.9531 119.877 35.5607C119.508 35.8866 118.965 36.5601 118.704 36.9945C114.728 35.1045 111.709 31.2376 110.036 26.6103L111.578 26.1541ZM105.495 20.5709H112.512V22.2002H104.713L105.495 20.5709ZM111.926 20.5709H112.252L112.578 20.484L113.729 21.0054C111.73 29.2607 106.799 34.4962 101.107 37.0814C100.868 36.6687 100.26 35.9518 99.8471 35.6694C105.474 33.2797 110.188 28.4134 111.926 20.9402V20.5709ZM130.5 18.0726H132.13V35.2349L130.5 35.6259V18.0726ZM131.239 18.0726H141.015V27.7399H131.239V26.3061H139.364V19.5281H131.239V18.0726ZM131.261 22.2219H140.059V23.6123H131.261V22.2219ZM128.393 35.1045C130.479 34.8004 133.759 34.2573 136.909 33.7142L137.018 35.1697C134.15 35.7128 131.065 36.2559 128.849 36.647L128.393 35.1045ZM135.953 27.1099C136.952 31.0855 139.168 34.3007 142.579 35.6476C142.21 35.9735 141.732 36.6035 141.493 37.038C137.865 35.4087 135.692 31.911 134.541 27.3924L135.953 27.1099ZM140.885 28.5003L142.036 29.4344C140.798 30.5641 139.081 31.759 137.778 32.541L136.735 31.6286C138.017 30.8465 139.82 29.4996 140.885 28.5003ZM127.806 21.3312L129.262 21.9178C127.676 24.5899 125.2 27.2837 122.918 29.0217C122.745 28.6741 122.245 27.8703 121.963 27.5444C124.135 26.0237 126.416 23.6992 127.806 21.3312ZM127.068 17.0515L128.632 17.6815C127.285 19.5933 125.134 21.7006 123.114 23.0257C122.94 22.6564 122.527 22.0047 122.267 21.6788C124.07 20.5274 126.09 18.6374 127.068 17.0515ZM125.525 25.7196L127.046 24.1771L127.111 24.2206V37.0163H125.525V25.7196ZM151.377 17.0515L153.115 17.4426C151.595 22.0264 149.162 26.0672 146.25 28.6524C145.946 28.3482 145.208 27.7617 144.795 27.4793C147.749 25.1113 150.031 21.2661 151.377 17.0515ZM156.765 26.1541C158.199 30.2817 161.24 33.9531 165.064 35.5607C164.695 35.8866 164.151 36.5601 163.891 36.9945C159.915 35.1045 156.895 31.2376 155.223 26.6103L156.765 26.1541ZM150.682 20.5709H157.699V22.2002H149.9L150.682 20.5709ZM157.113 20.5709H157.439L157.764 20.484L158.916 21.0054C156.917 29.2607 151.986 34.4962 146.294 37.0814C146.055 36.6687 145.447 35.9518 145.034 35.6694C150.661 33.2797 155.375 28.4134 157.113 20.9402V20.5709ZM174.579 20.4623L176.035 19.7454C177.49 21.3312 178.881 23.482 179.511 24.9592L177.946 25.8065C177.382 24.3075 175.969 22.0699 174.579 20.4623ZM167.432 32.9755C169.648 32.1066 173.124 30.6293 176.382 29.1955L176.752 30.7814C173.732 32.1717 170.43 33.6273 168.018 34.67L167.432 32.9755ZM180.466 30.1079L181.726 29.0434C183.79 31.0855 186.484 33.9097 187.766 35.6911L186.375 36.9728C185.159 35.1697 182.552 32.2369 180.466 30.1079ZM183.486 18.1595L185.246 18.3333C184.138 28.37 181.596 33.9097 173.993 37.0814C173.754 36.7339 173.102 36.017 172.689 35.6694C180.206 32.9321 182.509 27.6096 183.486 18.1595ZM170.082 18.2246L171.755 18.1595L172.124 32.5193L170.451 32.5845L170.082 18.2246ZM190.416 20.4623H209.838V21.983H190.416V20.4623ZM192.654 27.4575H198.737V28.7393H192.654V27.4575ZM192.654 30.9334H198.737V32.2152H192.654V30.9334ZM202.365 24.112H203.907V33.0407H202.365V24.112ZM198.15 23.9164H199.736V35.148C199.736 35.9735 199.54 36.408 198.932 36.6687C198.346 36.9294 197.39 36.9294 195.913 36.9294C195.826 36.5166 195.587 35.9083 195.369 35.4956C196.456 35.539 197.455 35.539 197.759 35.5173C198.063 35.4956 198.15 35.4087 198.15 35.1262V23.9164ZM206.775 23.4602H208.382V34.9959C208.382 35.9518 208.165 36.408 207.492 36.6687C206.818 36.9077 205.732 36.9511 204.037 36.9511C203.951 36.5166 203.69 35.8214 203.451 35.3869C204.776 35.4304 205.949 35.4304 206.319 35.4087C206.666 35.3869 206.775 35.3 206.775 34.9959V23.4602ZM193.784 17.5729L195.283 17.0081C196.13 17.9422 197.042 19.224 197.455 20.0712L195.847 20.6578C195.5 19.8323 194.609 18.5071 193.784 17.5729ZM204.95 16.9429L206.688 17.5077C205.862 18.8547 204.885 20.3536 204.081 21.3747L202.647 20.8316C203.429 19.7888 204.407 18.116 204.95 16.9429ZM191.785 23.9164H198.672V25.3285H193.327V36.9077H191.785V23.9164Z" fill="#4A1191"/>
<path d="M85.0244 56.4824L85.0244 62.1544" stroke="#7355BA" stroke-width="1.4123" stroke-linecap="round"/>
<path d="M87.8491 51.5508L87.8491 67.0861" stroke="#7355BA" stroke-width="1.4123" stroke-linecap="round"/>
<path d="M90.6738 54.375L90.6738 64.2611" stroke="#7355BA" stroke-width="1.4123" stroke-linecap="round"/>
<path d="M93.4985 55.7881L93.4985 62.8496" stroke="#7355BA" stroke-width="1.4123" stroke-linecap="round"/>
<path d="M96.3228 58.6123L96.3228 60.0246" stroke="#7355BA" stroke-width="1.4123" stroke-linecap="round"/>
<path d="M99.1479 58.6123L99.1479 60.0246" stroke="#7355BA" stroke-width="1.4123" stroke-linecap="round"/>
<path d="M101.972 58.6123L101.972 60.0246" stroke="#7355BA" stroke-width="1.4123" stroke-linecap="round"/>
<path d="M104.797 58.6123L104.797 60.0246" stroke="#7355BA" stroke-width="1.4123" stroke-linecap="round"/>
<path d="M107.622 54.375L107.622 64.2611" stroke="#7355BA" stroke-width="1.4123" stroke-linecap="round"/>
<path d="M110.446 53.6689L110.446 64.9673" stroke="#7355BA" stroke-width="1.4123" stroke-linecap="round"/>
<path d="M113.271 56.4941L113.271 62.1433" stroke="#7355BA" stroke-width="1.4123" stroke-linecap="round"/>
<path d="M116.095 57.9062L116.095 60.7308" stroke="#7355BA" stroke-width="1.4123" stroke-linecap="round"/>
<path d="M118.92 58.6123L118.92 60.0246" stroke="#7355BA" stroke-width="1.4123" stroke-linecap="round"/>
<path d="M121.744 58.6123L121.744 60.0246" stroke="#7355BA" stroke-width="1.4123" stroke-linecap="round"/>
<path d="M124.569 58.6123L124.569 60.0246" stroke="#7355BA" stroke-width="1.4123" stroke-linecap="round"/>
<path d="M127.394 58.6123L127.394 60.0246" stroke="#7355BA" stroke-width="1.4123" stroke-linecap="round"/>
<path d="M130.218 55.7881L130.218 62.8496" stroke="#7355BA" stroke-width="1.4123" stroke-linecap="round"/>
<path d="M133.043 51.5508L133.043 67.0861" stroke="#7355BA" stroke-width="1.4123" stroke-linecap="round"/>
<path d="M135.867 54.375L135.867 64.2611" stroke="#7355BA" stroke-width="1.4123" stroke-linecap="round"/>
<path d="M138.692 55.7881L138.692 62.8496" stroke="#7355BA" stroke-width="1.4123" stroke-linecap="round"/>
<path d="M141.517 57.9062L141.517 60.7308" stroke="#7355BA" stroke-width="1.4123" stroke-linecap="round"/>
<path d="M144.341 58.6123L144.341 60.0246" stroke="#7355BA" stroke-width="1.4123" stroke-linecap="round"/>
<path d="M147.166 58.6123L147.166 60.0246" stroke="#7355BA" stroke-width="1.4123" stroke-linecap="round"/>
<path d="M149.99 58.6123L149.99 60.0246" stroke="#7355BA" stroke-width="1.4123" stroke-linecap="round"/>
<path d="M152.815 58.6123L152.815 60.0246" stroke="#7355BA" stroke-width="1.4123" stroke-linecap="round"/>
<path d="M155.64 55.0811L155.64 63.5548" stroke="#7355BA" stroke-width="1.4123" stroke-linecap="round"/>
<path d="M158.464 52.9629L158.464 65.6736" stroke="#7355BA" stroke-width="1.4123" stroke-linecap="round"/>
<path d="M161.289 57.2002L161.289 61.4371" stroke="#7355BA" stroke-width="1.4123" stroke-linecap="round"/>
<path d="M164.113 56.4941L164.113 62.1433" stroke="#7355BA" stroke-width="1.4123" stroke-linecap="round"/>
<path d="M166.938 58.6123L166.938 60.0246" stroke="#7355BA" stroke-width="1.4123" stroke-linecap="round"/>
<path d="M169.762 58.6123L169.762 60.0246" stroke="#7355BA" stroke-width="1.4123" stroke-linecap="round"/>
<path d="M172.587 58.6123L172.587 60.0246" stroke="#7355BA" stroke-width="1.4123" stroke-linecap="round"/>
<path d="M175.412 55.7881L175.412 62.8496" stroke="#7355BA" stroke-width="1.4123" stroke-linecap="round"/>
<path d="M178.236 57.2002L178.236 61.4371" stroke="#7355BA" stroke-width="1.4123" stroke-linecap="round"/>
<path d="M181.061 55.7881L181.061 62.8496" stroke="#7355BA" stroke-width="1.4123" stroke-linecap="round"/>
<path d="M183.885 58.6123L183.885 60.0246" stroke="#7355BA" stroke-width="1.4123" stroke-linecap="round"/>
<path d="M186.71 58.6123L186.71 60.0246" stroke="#7355BA" stroke-width="1.4123" stroke-linecap="round"/>
<path d="M189.535 55.0811L189.535 63.5548" stroke="#7355BA" stroke-width="1.4123" stroke-linecap="round"/>
<path d="M192.359 57.2002L192.359 61.4371" stroke="#7355BA" stroke-width="1.4123" stroke-linecap="round"/>
<path d="M195.184 56.4941L195.184 62.1433" stroke="#7355BA" stroke-width="1.4123" stroke-linecap="round"/>
<path d="M0.785645 71.9043H24.7536L10.2016 60.7764L0.785645 71.9043Z" fill="#D7BFEF"/>
</svg>
